<svg xmlns="http://www.w3.org/2000/svg" xmlns:xlink="http://www.w3.org/1999/xlink">
    <symbol id="pin" viewBox="0 0 395.71 395.71">
        <path
            d="M197.849,0C122.131,0,60.531,61.609,60.531,137.329c0,72.887,124.591,243.177,129.896,250.388l4.951,6.738   c0.579,0.792,1.501,1.255,2.471,1.255c0.985,0,1.901-0.463,2.486-1.255l4.948-6.738c5.308-7.211,129.896-177.501,129.896-250.388   C335.179,61.609,273.569,0,197.849,0z M197.849,88.138c27.13,0,49.191,22.062,49.191,49.191c0,27.115-22.062,49.191-49.191,49.191   c-27.114,0-49.191-22.076-49.191-49.191C148.658,110.2,170.734,88.138,197.849,88.138z">
        </path>
    </symbol>
    <symbol id="chevronDown" viewBox="0 0 407.437 407.437">
        <polygon points="386.258,91.567 203.718,273.512 21.179,91.567 0,112.815 203.718,315.87 407.437,112.815 " />
    </symbol>
    <symbol id="plus" viewBox="0 0 455 455">
        <polygon
            points="455,212.5 242.5,212.5 242.5,0 212.5,0 212.5,212.5 0,212.5 0,242.5 212.5,242.5 212.5,455 242.5,455 242.5,242.5 455,242.5" />
    </symbol>
    <symbol id="cross" viewBox="0 0 14 14">
        <path stroke="currentColor" stroke-linecap="round" stroke-linejoin="round" stroke-width="2"
            d="m1 1 6 6m0 0 6 6M7 7l6-6M7 7l-6 6" />
    </symbol>
    <symbol id="search" viewBox="0 0 20 20">
        <path fill="transparent" stroke="currentColor" stroke-linecap="round" stroke-linejoin="round" stroke-width="2"
            d="m19 19-4-4m0-7A7 7 0 1 1 1 8a7 7 0 0 1 14 0Z" />
    </symbol>
    <symbol id="arrowLeft" viewBox="0 0 32 32">
        <path d="M32 15H3.41l8.29-8.29-1.41-1.42-10 10a1 1 0 0 0 0 1.41l10 10 1.41-1.41L3.41 17H32z" />
    </symbol>
    <symbol id="githubLogo" viewBox="0 0 17 16">
        <path
            d="M8.20003216,0 C3.67186256,0 0,3.67233045 0,8.2025137 C0,11.8266603 2.34955472,14.9012922 5.60770169,15.9859115 C6.01749428,16.0618219 6.16798309,15.8079721 6.16798309,15.5913056 C6.16798309,15.3957396 6.16033003,14.7495356 6.15685721,14.064154 C3.87553694,14.5603383 3.3941657,13.0963596 3.3941657,13.0963596 C3.02115925,12.1482506 2.48370842,11.896202 2.48370842,11.896202 C1.7397535,11.3870871 2.53978801,11.3975087 2.53978801,11.3975087 C3.36323189,11.4554066 3.79681972,12.242817 3.79681972,12.242817 C4.52816959,13.4968196 5.71510182,13.1342505 6.18303197,12.9247247 C6.25660428,12.3945093 6.46915364,12.0327122 6.70363321,11.8278826 C4.88233278,11.6204154 2.96765212,10.9170854 2.96765212,7.77413412 C2.96765212,6.87864774 3.28798748,6.14688355 3.81257603,5.57247278 C3.72742766,5.36584187 3.44677247,4.53159853 3.89200067,3.40175461 C3.89200067,3.40175461 4.58058343,3.18129256 6.14759636,4.24255971 C6.80164386,4.06076054 7.50315322,3.96966796 8.20003216,3.96658007 C8.89691109,3.96966796 9.59893494,4.06076054 10.2542687,4.24255971 C11.8194166,3.18129256 12.5070347,3.40175461 12.5070347,3.40175461 C12.9533562,4.53159853 12.6725723,5.36584187 12.587424,5.57247278 C13.1131701,6.14688355 13.4313189,6.87858341 13.4313189,7.77413412 C13.4313189,10.9245478 11.5130368,11.6182925 9.68710595,11.8213208 C9.98120223,12.0758783 10.2432714,12.5750862 10.2432714,13.3403025 C10.2432714,14.4377879 10.2337533,15.3211158 10.2337533,15.5913056 C10.2337533,15.8095804 10.3813481,16.0653602 10.7970574,15.9848178 C14.0534036,14.8989763 16.4,11.825438 16.4,8.2025137 C16.4,3.67233045 12.7286519,0 8.20003216,0">
        </path>
        <path
            d="M3.07518929,11.6824029 C3.05731167,11.723257 2.99359073,11.7355197 2.93568001,11.7075092 C2.87662002,11.6806603 2.84341872,11.6248974 2.86257332,11.5838496 C2.88013169,11.5417693 2.94385264,11.5300229 3.00278493,11.5582916 C3.06197262,11.5850759 3.09568471,11.6413552 3.07518929,11.6824029 M3.47564797,12.0435714 C3.436828,12.0799722 3.36091196,12.0630626 3.30938611,12.0055571 C3.25613634,11.9481806 3.24617596,11.8715065 3.28557057,11.8345248 C3.32560367,11.7981885 3.39922115,11.8151627 3.45259861,11.8726037 C3.50584838,11.9306256 3.51619186,12.0068479 3.47558413,12.0436359 M3.75038868,12.5056811 C3.70045904,12.5407266 3.61886048,12.5078755 3.5684839,12.4346866 C3.51861811,12.3615623 3.51861811,12.2737872 3.56956933,12.2386127 C3.62013745,12.2034381 3.70045904,12.235063 3.75153796,12.307671 C3.8013399,12.3820861 3.8013399,12.4698612 3.75032483,12.5057457 M4.2149514,13.0409152 C4.1703212,13.0906114 4.07531442,13.0773161 4.0057194,13.0094195 C3.93459201,12.9430719 3.91473508,12.8489074 3.95949298,12.7991467 C4.00463397,12.7493214 4.10021539,12.7633267 4.1703212,12.8306424 C4.24100164,12.8968609 4.26258248,12.9917354 4.21501525,13.0409152 M4.81538402,13.2216286 C4.79578249,13.2860399 4.70422354,13.3153413 4.6120261,13.2879762 C4.51995636,13.259772 4.45968324,13.1842596 4.4782632,13.1191383 C4.49741779,13.0542751 4.58935983,13.0237475 4.68225961,13.0530489 C4.77420165,13.081124 4.83460247,13.1560554 4.81544787,13.2216286 M5.49881989,13.2982381 C5.50111844,13.3661347 5.42290385,13.422414 5.32610931,13.4236402 C5.22874013,13.4257701 5.15001476,13.3708461 5.14899318,13.3041113 C5.14899318,13.2355693 5.22542,13.1798063 5.32272533,13.1781928 C5.41951987,13.1762566 5.49881989,13.2307933 5.49881989,13.2982381 M6.17012451,13.2722283 C6.18174496,13.3384468 6.11444849,13.4064725 6.01835628,13.4245438 C5.92386029,13.4419697 5.83638766,13.4011156 5.82432026,13.3354779 C5.81257211,13.2675814 5.88114555,13.1996203 5.97545,13.1820007 C6.07173375,13.1650911 6.15786557,13.2049126 6.17012451,13.2722283">
        </path>
    </symbol>
    <symbol id="alert" fill="transparent" shape-rendering="geometricPrecision" stroke="currentColor"
        stroke-linecap="round" stroke-linejoin="round" stroke-width="1.5" viewBox="0 0 24 24">
        <path d="M7.86 2h8.28L22 7.86v8.28L16.14 22H7.86L2 16.14V7.86L7.86 2z"></path>
        <path d="M12 8v4"></path>
        <path d="M12 16h.01"></path>
    </symbol>
    <symbol id="clock" viewBox="0 0 122.88 122.88" fill-rule="evenodd" clip-rule="evenodd">
        <path
            d="M61.44,0c33.93,0,61.44,27.51,61.44,61.44c0,33.93-27.51,61.44-61.44,61.44C27.51,122.88,0,95.37,0,61.44 C0,27.51,27.51,0,61.44,0L61.44,0z M52.92,30.52h7.51c1.37,0,2.5,1.13,2.5,2.5v28.94h26.41c1.38,0,2.5,1.13,2.5,2.5v7.51 c0,1.38-1.13,2.5-2.5,2.5H50.41V33.02C50.41,31.64,51.54,30.52,52.92,30.52L52.92,30.52z M61.44,13.95 c26.23,0,47.49,21.26,47.49,47.49c0,26.23-21.26,47.49-47.49,47.49c-26.23,0-47.49-21.26-47.49-47.49 C13.95,35.22,35.21,13.95,61.44,13.95L61.44,13.95z" />
    </symbol>
    <symbol id="person" viewBox="0 0 1024 1024">
        <path
            d="M78.22291438 968.30107625c0 14.21935406 9.47956969 23.69892375 23.69892374 23.69892375s23.69892375-9.47956969 23.69892375-23.69892375c0-213.33036656 173.03552063-386.36588719 386.36588625-386.36588625s386.37923813 173.03552063 386.37923907 386.36588625c0 14.21935406 9.47956969 23.69892375 23.69892281 23.69892375s23.69892375-9.47956969 23.69892375-23.69892375c0-196.74779531-132.74067469-362.66696344-310.51597969-417.19451437 90.06926062-45.03463031 151.713165-137.52051375 151.713165-244.14564282C786.96091906 155.261105 663.69981406 32 511.98664813 32S237.03908094 155.261105 237.03908094 306.96091906c0 106.66518281 61.6305525 199.1110125 151.69981406 244.14564281C208.60037281 603.25754469 78.22291438 769.17671281 78.22291438 968.30107625z m206.22736499-663.75678c0-125.62432219 101.92539844-227.56307156 227.54972063-227.56307156s227.56307156 101.99215594 227.56307156 227.56307156S637.651025 532.1474225 512 532.1474225s-227.54972063-101.92539844-227.54972063-227.60312625z m0 0" />
    </symbol>
    <symbol id="bookmark" viewBox="0 0 212.045 212.045">
        <path fill="#f43f5e" d="M167.871,0H44.84C34.82,0,26.022,8.243,26.022,18v182c0,3.266,0.909,5.988,2.374,8.091c1.752,2.514,4.573,3.955,7.598,3.954
	c2.86,0,5.905-1.273,8.717-3.675l55.044-46.735c1.7-1.452,4.142-2.284,6.681-2.284c2.538,0,4.975,0.832,6.68,2.288l54.86,46.724
	c2.822,2.409,5.657,3.683,8.512,3.683c4.828,0,9.534-3.724,9.534-12.045V18C186.022,8.243,177.891,0,167.871,0z" />
    </symbol>
    <symbol id="bookmarkOutline" viewBox="0 0 48.065 48.065">
        <path d="M40.908,0H7.158c-0.553,0-1,0.448-1,1v46.065c0,0.401,0.239,0.763,0.608,0.92c0.369,0.157,0.797,0.078,1.085-0.2
	l16.182-15.582l16.182,15.582c0.189,0.183,0.439,0.28,0.693,0.28c0.132,0,0.266-0.026,0.392-0.08c0.369-0.157,0.608-0.52,0.608-0.92
	V1C41.908,0.448,41.46,0,40.908,0z M39.908,44.714L24.726,30.095c-0.193-0.187-0.443-0.28-0.693-0.28s-0.5,0.093-0.693,0.28
	L8.158,44.714V2h31.75V44.714z" />
    </symbol>
    <symbol id="check" viewBox="0 0 17.837 17.837">
        <g>
            <path
                d="M16.145,2.571c-0.272-0.273-0.718-0.273-0.99,0L6.92,10.804l-4.241-4.27   c-0.272-0.274-0.715-0.274-0.989,0L0.204,8.019c-0.272,0.271-0.272,0.717,0,0.99l6.217,6.258c0.272,0.271,0.715,0.271,0.99,0   L17.63,5.047c0.276-0.273,0.276-0.72,0-0.994L16.145,2.571z" />
        </g>
    </symbol>
    <symbol id="langFlagPL" viewBox="0 0 8 5">
        <rect width="8" height="5" fill="#dc143c" />
        <rect width="8" height="2.5" fill="#fff" />
    </symbol>
    <symbol id="langFlagEN" viewBox="0 0 50 30">
        <clipPath id="langFlagEN_t">
            <path d="M25,15h25v15zv15h-25zh-25v-15zv-15h25z" />
        </clipPath>
        <path d="M0,0v30h50v-30z" fill="#012169" />
        <path d="M0,0 50,30M50,0 0,30" stroke="#fff" stroke-width="6" />
        <path d="M0,0 50,30M50,0 0,30" clip-path="url(#langFlagEN_t)" stroke="#C8102E" stroke-width="4" />
        <path d="M-1 11h22v-12h8v12h22v8h-22v12h-8v-12h-22z" fill="#C8102E" stroke="#FFF" stroke-width="2" />
    </symbol>
</svg>