<svg xmlns="http://www.w3.org/2000/svg" viewBox="0 0 728.5 338.74">
    <defs>
        <style>
            .cls-1 {
                fill: #8d0126;
            }
        </style>
    </defs>
    <path class="cls-1"
        d="M318.08,192.89c0-8,0-9.41-.11-11.11s-.5-2.71-2.2-3a9.79,9.79,0,0,0-2.1-.21c-.49,0-.91-.09-.91-.49s.42-.41,1.2-.41c2.81,0,6.11.11,7.72.11,1.19,0,4.49-.11,6.4-.11.8,0,1.2.11,1.2.41s-.31.49-.9.49a9.33,9.33,0,0,0-1.5.21c-1.41.2-1.8,1.09-1.91,3-.09,1.7-.09,3.1-.09,11.11v7.39c0,7.62,1.5,10.82,4.09,12.92a9.44,9.44,0,0,0,6.52,2.2,10.29,10.29,0,0,0,7.3-2.9c2.9-2.9,3-7.6,3-13v-6.6c0-8,0-9.41-.1-11.11s-.49-2.71-2.2-3a9.33,9.33,0,0,0-1.9-.21c-.6,0-.9-.09-.9-.49s.4-.41,1.1-.41c2.7,0,6,.11,6,.11.7,0,4-.11,6-.11.79,0,1.1.11,1.1.41s-.31.49-.9.49a7,7,0,0,0-1.5.21c-1.41.2-1.91,1.09-2,3-.11,1.7-.11,3.1-.11,11.11v5.6c0,5.91-.59,12.11-5,15.91a15.6,15.6,0,0,1-10.91,3.8c-2.8,0-7.81-.2-11.7-3.7-2.71-2.4-4.7-6.3-4.7-13.91Z"
        transform="translate(-56.69 -56.69)" />
    <path class="cls-1"
        d="M367.51,210.3c.1,4.1.8,5.4,1.9,5.8a8.86,8.86,0,0,0,2.71.4c.59,0,.89.1.89.4s-.5.5-1.2.5c-3.41,0-5.5-.1-6.51-.1-.5,0-3,.1-5.7.1-.7,0-1.2,0-1.2-.5,0-.3.4-.4.9-.4a10.43,10.43,0,0,0,2.4-.3c1.3-.4,1.5-1.9,1.61-6.5l.39-31.13c0-1.09.2-1.79.7-1.79s1.1.7,2,1.59c.61.7,8.61,9.31,16.31,16.92,3.61,3.6,10.61,11.11,11.61,12h.2L394,183.68c-.1-3.2-.51-4.2-1.8-4.8a9,9,0,0,0-2.81-.31c-.6,0-.8-.09-.8-.49s.5-.41,1.31-.41c2.8,0,5.3.11,6.4.11.6,0,2.6-.11,5.1-.11.7,0,1.3,0,1.3.41s-.4.49-1,.49a4.77,4.77,0,0,0-1.61.21c-1.4.4-1.9,1.5-1.9,4.4l-.6,33.22c0,1.21-.2,1.71-.7,1.71s-1.2-.61-1.81-1.21c-3.3-3.2-10-10.1-15.51-15.5-5.7-5.61-11.5-12.22-12.5-13.21H367Z"
        transform="translate(-56.69 -56.69)" />
    <path class="cls-1"
        d="M414.84,192.89c0-8,0-9.41-.11-11.11s-.59-2.71-1.69-3a11.27,11.27,0,0,0-1.9-.21c-.61,0-.91-.09-.91-.49s.41-.41,1.31-.41c2,0,5.2.11,6.7.11,1.3,0,4.41-.11,6.41-.11.7,0,1.1.11,1.1.41s-.3.49-.8.49a8.8,8.8,0,0,0-1.6.21c-1.41.2-1.8,1.09-1.91,3-.1,1.7-.1,3.1-.1,11.11v9.31c0,5.1,0,9.2.21,11.5.1,1.4.49,2.4,2.1,2.6a22.82,22.82,0,0,0,2.7.2c.5,0,.81.1.81.41s-.42.5-1,.5c-3.5,0-6.8-.11-8.2-.11-1.21,0-4.42.11-6.51.11-.71,0-1.1-.11-1.1-.5s.19-.41.89-.41a9.23,9.23,0,0,0,1.91-.2c1-.2,1.3-1.1,1.5-2.7.2-2.2.2-6.3.2-11.4Z"
        transform="translate(-56.69 -56.69)" />
    <path class="cls-1"
        d="M436.15,182.78c-.6-1.9-1.19-3.2-1.89-3.71a4.59,4.59,0,0,0-2.11-.49c-.6,0-.9,0-.9-.5,0-.31.4-.41,1.2-.41,2.71,0,5.6.1,6.1.1s2.81-.1,5.81-.1c.7,0,1.11.1,1.11.41,0,.5-.41.5-.91.5a3.18,3.18,0,0,0-1.4.2c-.4.2-.5.6-.5,1.19a33.25,33.25,0,0,0,1.1,4.81c.9,3.5,5.8,19.42,6.8,22.41h.1l10.21-27.42c.5-1.49.91-1.89,1.3-1.89.6,0,.9.79,1.6,2.5l10.91,26.42h.2c.9-3.51,5.1-17.42,6.91-23.62a10.44,10.44,0,0,0,.59-3c0-.91-.5-1.6-2.59-1.6-.51,0-.81-.11-.81-.5s.4-.41,1.2-.41c2.71,0,5,.1,5.4.1s2.71-.1,4.42-.1c.59,0,.89.1.89.41s-.19.5-.7.5a5.36,5.36,0,0,0-1.8.3c-1.3.39-1.9,2.59-3,5.6-2.39,6.61-7.9,23.32-10.5,31.22-.6,1.8-.8,2.5-1.51,2.5-.49,0-.89-.7-1.59-2.6l-11-26.42h-.1c-1,2.7-8,21.32-10.31,26.22-.89,2.1-1.2,2.8-1.79,2.8s-.81-.6-1.2-2Z"
        transform="translate(-56.69 -56.69)" />
    <path class="cls-1"
        d="M500.9,192.89c0-8,0-9.41-.1-11.11s-.5-2.71-2.3-3a9.57,9.57,0,0,0-2-.21c-.6,0-.91-.09-.91-.49s.4-.41,1.2-.41H501c1.4.11,2.6.11,3.3.11h13.21c1-.11,1.8-.21,2.2-.3a3.16,3.16,0,0,1,.91-.31c.19,0,.3.31.3.5a24.61,24.61,0,0,0-.41,3.41c-.09.6-.2,2.9-.3,3.5,0,.3-.1.61-.5.61s-.5-.31-.5-.7a4.73,4.73,0,0,0-.3-1.92c-.4-1-.9-1.59-3.5-1.9-.91-.1-6.41-.19-7.5-.19-.21,0-.41.09-.41.5v13.31c0,.4.1.59.41.59,1.19,0,7.2,0,8.4-.09a4,4,0,0,0,2.6-.8c.3-.5.51-.71.8-.71a.37.37,0,0,1,.4.41,37.78,37.78,0,0,0-.5,3.8c0,1.1-.19,3.21-.19,3.6s0,1-.4,1-.51-.2-.51-.5c-.1-.5-.1-1.2-.19-1.9-.31-1.1-1-1.8-3-2-1-.2-6.2-.2-7.39-.2-.31,0-.41.2-.41.5V210.3c.2,3.61,1,4.4,6.41,4.4a14,14,0,0,0,4.9-.6c1.4-.61,2-1.7,2.4-3.91.11-.59.2-.79.5-.79.5,0,.5.5.5,1a51.14,51.14,0,0,1-.7,5.8c-.39,1.41-.89,1.41-2.9,1.41-3.9,0-6.81-.11-9.11-.2s-3.9-.11-5.4-.11h-3c-1.2,0-2.6.11-3.7.11-.61,0-1-.11-1-.5s.2-.41.8-.41a8.44,8.44,0,0,0,1.9-.2c1.1-.2,1.3-1.4,1.6-2.89.2-2.22.2-6.42.2-11.21Z"
        transform="translate(-56.69 -56.69)" />
    <path class="cls-1"
        d="M546.13,177.67a16.35,16.35,0,0,1,8.31,2.2,9.11,9.11,0,0,1,3.6,7.21c0,3.91-1.7,7.51-7,11.81,4.71,5.9,8.31,10.6,11.41,13.81s5.1,3.5,5.91,3.6a10.34,10.34,0,0,0,1.51.2c.39,0,.59.1.59.41s-.4.5-1,.5h-5c-2.92,0-4.22-.21-5.62-1-2.31-1.2-4.3-3.7-7.21-7.7-2.09-2.91-4.5-6.5-5.2-7.3-.1-.11-.2-.11-.3-.21v-2.7a5,5,0,0,0,2.6-.8c1.51-1.2,3-3.6,3-7.91,0-5.8-2.9-8.4-5.6-9.3Zm-11.91,15.22c0-8,0-9.41-.1-11.11s-.5-2.71-2.2-3a9.83,9.83,0,0,0-2.09-.21c-.51,0-.91-.09-.91-.49s.4-.41,1.19-.41c2.81,0,6.11.11,7.22.11,1.79,0,5.8-.11,7.4-.11h1.4v2.81a11,11,0,0,0-2.4-.41,9.34,9.34,0,0,0-2.8.31.66.66,0,0,0-.5.7v16c0,.6.2.8.5.9a12.91,12.91,0,0,0,4,.5h1.2v2.7a1.48,1.48,0,0,0-.7-.1l-4.5-.11c-.3,0-.5.11-.5.42v.69a111.71,111.71,0,0,0,.3,11.32c.2,1.49.5,2.69,2.1,2.89a25,25,0,0,0,2.5.2c.5,0,.7.1.7.41s-.4.5-1.1.5c-3,0-6.9-.11-7.71-.11-1,0-4.3.11-6.4.11-.71,0-1.1-.11-1.1-.5s.19-.41.89-.41a7.48,7.48,0,0,0,1.81-.2c1.1-.2,1.4-1.4,1.61-2.89.19-2.22.19-6.42.19-11.21Z"
        transform="translate(-56.69 -56.69)" />
    <path class="cls-1"
        d="M575.06,216.8c-.91-.39-1-.6-1-1.8,0-2.9.19-6,.19-6.91s.2-1.39.6-1.39.6.5.6.9a14.8,14.8,0,0,0,.41,2.7c1.2,3.89,4.3,5.3,7.6,5.3,4.7,0,7-3.2,7-6,0-2.5-.79-5-5.09-8.41l-2.5-1.9c-5.71-4.5-7.71-8.21-7.71-12.41,0-5.8,4.8-10,12.11-10a29,29,0,0,1,7,.9c.5.09.7.3.7.7,0,.59-.2,2.2-.2,6.3,0,1.11-.11,1.51-.61,1.51-.29,0-.5-.31-.5-.91a6.23,6.23,0,0,0-1.3-3.5,6.86,6.86,0,0,0-5.8-2.6c-3.91,0-6.2,2.3-6.2,5.5,0,2.4,1.2,4.21,5.5,7.5l1.5,1.11c6.41,4.8,8.61,8.5,8.61,13.41a10.59,10.59,0,0,1-4.9,9.2,15.18,15.18,0,0,1-8.42,2.2,17.75,17.75,0,0,1-7.59-1.4"
        transform="translate(-56.69 -56.69)" />
    <path class="cls-1"
        d="M617.08,203.79a10.93,10.93,0,0,0-1.2-5.5c-.4-.9-7.41-12.4-9.2-15.21a15.22,15.22,0,0,0-3.7-3.81,4.56,4.56,0,0,0-2.21-.7c-.4,0-.79-.09-.79-.49s.39-.41,1-.41c1,0,4.91.11,6.71.11,1.09,0,3.2-.11,5.6-.11.5,0,.8.11.8.41s-.39.4-1.2.59a1,1,0,0,0-.7,1,4.65,4.65,0,0,0,.6,1.8c.69,1.5,8.11,14.21,9,15.71.5-1.3,7.11-12.91,7.8-14.51a5.69,5.69,0,0,0,.8-2.7,1.26,1.26,0,0,0-1.1-1.31c-.5-.1-1-.19-1-.59s.3-.41.89-.41c1.81,0,3.41.11,5,.11,1.11,0,4.61-.11,5.62-.11.59,0,.89.11.89.41s-.4.49-1,.49a5,5,0,0,0-2.3.7,7.08,7.08,0,0,0-2.81,2.51,191.33,191.33,0,0,0-10.1,16.71,12.72,12.72,0,0,0-.8,5.3v4.31c0,.9,0,3.1.2,5.3.1,1.49.6,2.7,2.2,2.9a22.75,22.75,0,0,0,2.6.2c.6,0,.8.1.8.4s-.4.5-1.1.5c-3.3,0-6.6-.1-8-.1s-4.6.1-6.61.1c-.7,0-1.09-.1-1.09-.5s.19-.4.78-.4a8.36,8.36,0,0,0,1.82-.2c1.09-.2,1.6-1.41,1.69-2.9.1-2.2.1-4.4.1-5.3Z"
        transform="translate(-56.69 -56.69)" />
    <path class="cls-1"
        d="M657.81,180.58l-7.81.19c-3.1.11-4.29.41-5.09,1.51a5,5,0,0,0-.91,1.91c-.1.39-.3.59-.6.59s-.5-.2-.5-.8c0-.9,1-5.7,1.1-6.1.21-.7.3-1,.71-1s.89.6,2.19.7c1.51.09,3.6.19,5.31.19H673a30.49,30.49,0,0,0,3.6-.19,9.79,9.79,0,0,1,1.51-.31c.3,0,.4.31.4,1.1,0,1.11-.2,4.71-.2,6.11,0,.5-.11.8-.4.8-.5,0-.6-.2-.6-1l-.1-.6c-.11-1.4-1.51-2.8-6.21-2.91l-6.61-.19v21.61a106.49,106.49,0,0,0,.31,11.21c.09,1.5.4,2.7,2,2.9a23,23,0,0,0,2.71.2c.6,0,.8.1.8.4s-.4.51-1,.51c-3.5,0-6.8-.11-8.2-.11-1.2,0-4.61.11-6.71.11-.61,0-1-.11-1-.51s.19-.4.8-.4a8.37,8.37,0,0,0,1.9-.2c1.1-.2,1.41-1.4,1.5-2.9a110,110,0,0,0,.3-11.21Z"
        transform="translate(-56.69 -56.69)" />
    <path class="cls-1"
        d="M689.94,192.89c0-8,0-9.41-.11-11.11s-.5-2.71-2.29-3a9.6,9.6,0,0,0-2-.21c-.6,0-.9-.09-.9-.49s.41-.41,1.2-.41H690c1.4.11,2.6.11,3.3.11h13.21c1-.11,1.81-.21,2.21-.3a3.11,3.11,0,0,1,.9-.31c.2,0,.3.31.3.5a24.61,24.61,0,0,0-.41,3.41c-.09.6-.2,2.9-.29,3.5a.57.57,0,0,1-.5.61c-.4,0-.51-.31-.51-.7a4.87,4.87,0,0,0-.29-1.92c-.4-1-.91-1.59-3.51-1.9-.9-.1-6.41-.19-7.5-.19-.3,0-.4.09-.4.5v13.31c0,.4.1.59.4.59,1.2,0,7.2,0,8.4-.09s2.1-.3,2.51-.8.6-.71.9-.71.3.11.3.41-.21,1.19-.4,3.8c0,1.1-.2,3.21-.2,3.6s0,1-.5,1c-.3,0-.4-.2-.4-.5-.11-.5-.11-1.2-.2-1.9-.31-1.1-1-1.8-3-2-1-.2-6.21-.2-7.41-.2-.3,0-.4.2-.4.5V210.3c.1,3.61,1,4.4,6.41,4.4a14,14,0,0,0,4.9-.6c1.4-.61,2-1.7,2.39-3.91.11-.59.22-.79.5-.79.5,0,.5.5.5,1a53.58,53.58,0,0,1-.69,5.8c-.4,1.41-.9,1.41-2.9,1.41-3.9,0-6.81-.11-9.11-.2s-3.9-.11-5.41-.11h-3c-1.2,0-2.59.11-3.6.11-.7,0-1.1-.11-1.1-.5s.2-.41.8-.41a9.12,9.12,0,0,0,1.9-.2c1.11-.2,1.31-1.4,1.5-2.89a106.9,106.9,0,0,0,.31-11.21Z"
        transform="translate(-56.69 -56.69)" />
    <path class="cls-1"
        d="M731.26,180.58l-7.9.19c-3,.11-4.31.41-5.11,1.51a7.37,7.37,0,0,0-.9,1.91c-.09.39-.2.59-.5.59s-.5-.2-.5-.8c0-.9,1-5.7,1.1-6.1.1-.7.3-1,.6-1a10.93,10.93,0,0,0,2.3.7c1.51.09,3.51.19,5.22.19h20.9a31.79,31.79,0,0,0,3.6-.19,9.92,9.92,0,0,1,1.4-.31c.41,0,.41.31.41,1.1,0,1.11-.1,4.71-.1,6.11-.1.5-.2.8-.5.8s-.51-.2-.6-1v-.6c-.11-1.4-1.6-2.8-6.21-2.91l-6.7-.19v21.61a110,110,0,0,0,.3,11.21c.19,1.5.5,2.7,2,2.9a24.34,24.34,0,0,0,2.7.2c.6,0,.89.1.89.4s-.49.51-1,.51c-3.5,0-6.8-.11-8.3-.11-1.21,0-4.51.11-6.61.11-.7,0-1-.11-1-.51s.2-.4.8-.4a9.12,9.12,0,0,0,1.9-.2c1-.2,1.3-1.4,1.51-2.9.29-2.2.29-6.4.29-11.21Z"
        transform="translate(-56.69 -56.69)" />
    <path class="cls-1"
        d="M320.38,255.93c0-7.9,0-9.31-.11-11s-.5-2.7-2.3-3a10.2,10.2,0,0,0-2-.2c-.61,0-.91-.1-.91-.5s.41-.4,1.2-.4h4.21c1.4.1,2.6.1,3.29.1H337a16.62,16.62,0,0,0,2.2-.31,3.36,3.36,0,0,1,.91-.19c.2,0,.3.19.3.4a23.54,23.54,0,0,0-.4,3.4c-.1.6-.2,2.9-.3,3.5-.1.31-.2.61-.51.61s-.5-.3-.5-.8a7.36,7.36,0,0,0-.29-1.81c-.41-1-.91-1.6-3.5-1.9-.91-.1-6.51-.2-7.51-.2-.3,0-.4.1-.4.5v13.21c0,.4.1.61.4.61,1.2,0,7.21,0,8.41-.11s2.1-.3,2.5-.8.6-.7.89-.7.31.1.31.4-.2,1.21-.4,3.8c0,1.1-.2,3.21-.2,3.6s0,1-.5,1c-.3,0-.41-.19-.41-.5-.09-.5-.09-1.2-.19-1.9-.31-1-1-1.8-3-2-1-.21-6.21-.21-7.51-.21-.2,0-.3.21-.3.5v12.31c.1,3.7,1,4.4,6.3,4.4a14.36,14.36,0,0,0,5-.6c1.3-.59,2-1.7,2.3-3.9.19-.6.3-.8.6-.8s.4.5.4,1a51.46,51.46,0,0,1-.6,5.79c-.4,1.41-.9,1.41-2.9,1.41-3.91,0-6.81-.1-9.12-.2s-3.89-.1-5.4-.1h-3c-1.2,0-2.6.1-3.7.1-.6,0-1-.1-1-.5s.2-.4.81-.4a10.15,10.15,0,0,0,1.9-.2c1.1-.2,1.29-1.4,1.49-2.9a106.79,106.79,0,0,0,.31-11.21Z"
        transform="translate(-56.69 -56.69)" />
    <path class="cls-1"
        d="M360.1,258.23h.3c1.8-1.9,9.52-9.61,11-11.4s2.6-3.11,2.6-4c0-.61-.2-.9-.7-1s-.7-.2-.7-.6.3-.4.81-.4c1.2,0,4,.1,5.49.1s4.5-.1,6.11-.1c.5,0,.9.1.9.4s-.3.5-.8.5a9.34,9.34,0,0,0-3,.6,15.15,15.15,0,0,0-5.71,3.9c-1.6,1.6-9.6,9.41-11.41,11.31,1.91,2.51,12.21,13.61,14.31,15.51,2.31,2.2,4.71,4.6,7.51,5.7a9.75,9.75,0,0,0,3.3.81c.3,0,.71.1.71.4s-.31.5-1.31.5h-4.6c-1.6,0-2.51,0-3.6-.1-2.9-.2-4.3-1.4-6.51-3.4-2.4-2.11-12.7-14.22-13.81-15.71l-.6-.81h-.3v4.81c0,4.8,0,9,.2,11.2.1,1.51.61,2.71,1.9,2.91a25.49,25.49,0,0,0,2.6.2c.41,0,.61.1.61.4s-.41.5-.9.5c-3,0-6.31-.1-7.61-.1s-4.5.1-6.61.1c-.7,0-1.1-.1-1.1-.5s.21-.4.8-.4a8.91,8.91,0,0,0,1.9-.2c1.11-.2,1.31-1.4,1.61-2.91.2-2.19.2-6.4.2-11.2v-9.31c0-7.9,0-9.3-.1-11s-.5-2.71-2.21-3a12.38,12.38,0,0,0-2.1-.2c-.59,0-.9-.1-.9-.5s.4-.4,1.2-.4c2.81,0,6.11.1,7.31.1s4.6-.1,6.41-.1c.7,0,1.1.1,1.1.4s-.31.5-.7.5a7.82,7.82,0,0,0-1.51.2c-1.4.2-1.8,1.1-2,3-.11,1.71-.11,3.11-.11,11Z"
        transform="translate(-56.69 -56.69)" />
    <path class="cls-1"
        d="M410.54,240h.3c13,0,21.22,7.7,21.22,19.62s-8.42,21.41-21.52,21.61v-2.8a13.34,13.34,0,0,0,2,.1c3.59,0,12.1-1.81,12.1-17,0-11.1-6.1-18.21-14.1-18.91Zm-21.42,20.52c0-8.91,5.9-20.32,21.42-20.52v2.6h-1.21c-6,0-12.9,3.31-12.9,16.31,0,10.21,5.2,18.41,14.11,19.52v2.8h-.2c-15.12,0-21.22-11.31-21.22-20.71"
        transform="translate(-56.69 -56.69)" />
    <path class="cls-1"
        d="M446.36,273.34c.1,4.1.7,5.4,1.81,5.81a9.11,9.11,0,0,0,2.7.4c.59,0,.89.1.89.39s-.4.5-1.2.5c-3.4,0-5.5-.09-6.5-.09-.5,0-2.9.09-5.7.09-.7,0-1.1,0-1.1-.5,0-.29.29-.39.79-.39a10.55,10.55,0,0,0,2.41-.31c1.29-.39,1.6-1.9,1.6-6.5l.5-31c0-1.11.1-1.8.69-1.8s1,.69,1.91,1.6c.6.7,8.6,9.31,16.31,16.81,3.6,3.61,10.71,11.11,11.61,12h.2l-.5-23.52c0-3.2-.5-4.2-1.8-4.8a8.92,8.92,0,0,0-2.8-.3c-.6,0-.8-.1-.8-.5s.59-.4,1.4-.4c2.7,0,5.2.1,6.3.1.6,0,2.6-.1,5.21-.1.7,0,1.2,0,1.2.4s-.31.5-1,.5a4.17,4.17,0,0,0-1.5.2c-1.5.4-1.89,1.5-2,4.41l-.6,33.11c0,1.21-.2,1.71-.6,1.71a2.9,2.9,0,0,1-1.8-1.21c-3.3-3.2-10.11-10-15.51-15.5-5.8-5.61-11.61-12.21-12.61-13.12h-.1Z"
        transform="translate(-56.69 -56.69)" />
    <path class="cls-1"
        d="M508.51,240h.19c13.12,0,21.32,7.7,21.32,19.62s-8.3,21.41-21.51,21.61v-2.8a12,12,0,0,0,1.9.1c3.7,0,12.2-1.81,12.2-17,0-11.1-6.1-18.21-14.1-18.91ZM487,260.54c0-8.91,5.9-20.32,21.52-20.52v2.6h-1.3c-6,0-12.91,3.31-12.91,16.31,0,10.21,5.2,18.51,14.21,19.52v2.8h-.31c-15.11,0-21.21-11.31-21.21-20.71"
        transform="translate(-56.69 -56.69)" />
    <path class="cls-1"
        d="M543.33,241c.2-.89.5-1.39.9-1.39s.7.29,1.4,1.6L560,270.84l14.32-29.92c.4-.9.7-1.3,1.1-1.3s.79.5,1,1.6l4.81,32.42c.5,3.4,1,4.9,2.5,5.31a11.24,11.24,0,0,0,3.31.6c.49,0,.9,0,.9.3,0,.5-.71.6-1.42.6-1.29,0-8.59-.1-10.7-.3-1.2-.1-1.49-.3-1.49-.6s.2-.4.6-.6.39-.71.19-2.21l-3.1-23.11h-.2l-11.51,23.81c-1.2,2.51-1.5,3-1.9,3s-1.1-1.1-1.9-2.71c-1.3-2.39-5.41-10.4-6-11.91-.51-1.09-3.71-7.7-5.51-11.7h-.2l-2.8,21a19.84,19.84,0,0,0-.1,2.39c0,1,.7,1.5,1.6,1.7a10.61,10.61,0,0,0,2.2.31c.4,0,.8.1.8.3,0,.5-.5.6-1.31.6-2.19,0-4.59-.1-5.49-.1s-3.6.1-5.21.1c-.5,0-1-.1-1-.6q0-.3.9-.3a4.78,4.78,0,0,0,1.51-.2c1.5-.31,1.89-2.31,2.2-4.11Z"
        transform="translate(-56.69 -56.69)" />
    <path class="cls-1"
        d="M598.27,255.93c0-7.9,0-9.31-.11-11s-.7-2.7-1.79-3a12.25,12.25,0,0,0-1.9-.2c-.51,0-.81-.1-.81-.5s.41-.4,1.21-.4c2,0,5.3.1,6.8.1s4.5-.1,6.51-.1c.6,0,1.1.1,1.1.4s-.3.5-.9.5a9,9,0,0,0-1.51.2c-1.49.2-1.9,1.1-2,3-.1,1.7-.1,3.11-.1,11v9.31c0,5.1,0,9.21.2,11.5.2,1.41.5,2.41,2.1,2.61.8.09,1.91.2,2.71.2.6,0,.81.1.81.4s-.42.5-1,.5c-3.41,0-6.71-.1-8.2-.1-1.21,0-4.51.1-6.61.1-.7,0-1-.1-1-.5s.19-.4.8-.4a10,10,0,0,0,1.9-.2c1-.2,1.41-1.11,1.5-2.71a111,111,0,0,0,.3-11.4Z"
        transform="translate(-56.69 -56.69)" />
    <path class="cls-1"
        d="M622.18,275.44c-5.2-4.5-6.6-10.4-6.6-15.51a19.42,19.42,0,0,1,6.21-14.31c3.8-3.5,8.81-5.6,16.62-5.6a41,41,0,0,1,7.59.6c2,.19,3.7.7,5.31.89.6,0,.8.31.8.61s-.2,1-.3,2.9c-.1,1.7,0,4.61-.1,5.7-.11.7-.2,1.11-.7,1.11s-.51-.41-.51-1.11a6.74,6.74,0,0,0-2.09-4.79c-1.71-1.91-5.8-3.3-10.61-3.3-4.6,0-7.61,1.19-9.91,3.3-3.81,3.49-4.8,8.4-4.8,13.5,0,12.51,9.5,18.72,16.5,18.72,4.71,0,7.51-.51,9.62-2.91a9,9,0,0,0,1.8-3.5c.19-.8.3-1.1.7-1.1s.5.4.5.8a42.16,42.16,0,0,1-1.2,7c-.2.9-.4,1.2-1.31,1.49-2.1.91-6.1,1.31-9.5,1.31-7.2,0-13.31-1.6-18-5.81"
        transform="translate(-56.69 -56.69)" />
    <path class="cls-1"
        d="M680,277.44c5.3,0,7.4-1.3,8.2-2.9a12,12,0,0,0,1-2.49c.09-.61.2-.91.5-.91s.49.4.49,1.6a43.25,43.25,0,0,1-1,6.5c-.31.91-.7,1.31-1.6,1.31-8.81,0-17.62-.21-28.32-.21-.51,0-.9-.19-.9-.59s.2-.6.79-1.5c7.5-11.61,15.22-23.53,22.31-34.53h-10.3c-2.7,0-5.91.2-7.61,1.1a6,6,0,0,0-2.8,4.11c-.09.79-.4,1-.7,1s-.39-.3-.39-.91c0-1.2.8-6,1.09-7.6.11-.7.3-1,.61-1,.5,0,.79.3,2.1.39,5,.2,7.5.11,9.71.11h16c.5,0,.89.2.89.4a1.77,1.77,0,0,1-.39,1c-7.31,11.7-15.31,23.82-22.72,35.12Z"
        transform="translate(-56.69 -56.69)" />
    <path class="cls-1"
        d="M705.34,273.34c.11,4.1.81,5.4,1.81,5.81a9.16,9.16,0,0,0,2.7.4c.6,0,.89.1.89.39s-.39.5-1.2.5c-3.39,0-5.5-.09-6.5-.09-.5,0-2.9.09-5.7.09-.7,0-1.1,0-1.1-.5,0-.29.3-.39.79-.39a9.9,9.9,0,0,0,2.41-.31c1.4-.39,1.61-1.9,1.61-6.5l.49-31c0-1.11.2-1.8.71-1.8s1,.69,1.89,1.6c.7.7,8.61,9.31,16.31,16.81,3.61,3.61,10.71,11.11,11.62,12h.3l-.61-23.52c0-3.2-.5-4.2-1.8-4.8a8.61,8.61,0,0,0-2.7-.3c-.7,0-.9-.1-.9-.5s.6-.4,1.4-.4c2.71,0,5.2.1,6.3.1.61,0,2.6-.1,5.21-.1.7,0,1.2,0,1.2.4s-.31.5-.9.5a4.38,4.38,0,0,0-1.6.2c-1.51.4-1.9,1.5-2,4.41l-.5,33.11c0,1.21-.29,1.71-.7,1.71-.6,0-1.2-.6-1.8-1.21-3.3-3.2-10.1-10-15.51-15.5-5.81-5.61-11.61-12.21-12.5-13.12h-.21Z"
        transform="translate(-56.69 -56.69)" />
    <path class="cls-1"
        d="M761.58,266.84a11,11,0,0,0-1.19-5.51c-.31-.9-7.41-12.3-9.21-15.1a13.27,13.27,0,0,0-3.71-3.81,4.36,4.36,0,0,0-2.2-.7c-.39,0-.8-.1-.8-.5s.41-.4,1-.4c1,0,4.9.1,6.69.1,1.11,0,3.21-.1,5.61-.1.49,0,.8.1.8.4s-.4.4-1.2.6a.9.9,0,0,0-.7,1,4.61,4.61,0,0,0,.6,1.8c.8,1.5,8.1,14.11,9,15.62.5-1.31,7.11-12.71,7.81-14.42a5.69,5.69,0,0,0,.81-2.7,1.25,1.25,0,0,0-1.1-1.3c-.5-.1-1-.2-1-.6s.31-.4.9-.4c1.8,0,3.41.1,5,.1,1.1,0,4.6-.1,5.6-.1.59,0,.9.1.9.4s-.4.5-1,.5a6.11,6.11,0,0,0-2.3.6,8.41,8.41,0,0,0-2.79,2.6C777.39,247,770,259.34,769,261.53a14.42,14.42,0,0,0-.7,5.31v4.3c0,.9,0,3.1.09,5.3.11,1.51.61,2.71,2.21,2.91a25.28,25.28,0,0,0,2.6.2c.61,0,.8.1.8.39s-.39.5-1.09.5c-3.3,0-6.62-.09-8-.09s-4.6.09-6.61.09c-.69,0-1.09-.09-1.09-.5s.2-.39.8-.39a8.64,8.64,0,0,0,1.8-.2c1.1-.2,1.6-1.4,1.7-2.91.1-2.2.1-4.4.1-5.3Z"
        transform="translate(-56.69 -56.69)" />
    <path class="cls-1"
        d="M315.67,309c-.6-1.9-1.2-3.21-1.9-3.7a4.43,4.43,0,0,0-2.1-.5c-.5,0-.9,0-.9-.51,0-.3.5-.4,1.2-.4,2.7,0,5.6.1,6.1.1s2.81-.1,5.81-.1c.8,0,1.1.1,1.1.4,0,.51-.4.51-.91.51a2.85,2.85,0,0,0-1.29.19c-.51.2-.61.6-.61,1.2a29.41,29.41,0,0,0,1.2,4.81c.81,3.5,5.71,19.41,6.71,22.41h.11L340.39,306c.6-1.51.9-1.9,1.3-1.9.6,0,.91.79,1.6,2.39L354.2,333h.2c.9-3.51,5.1-17.42,7-23.63a14.24,14.24,0,0,0,.51-3c0-.8-.51-1.59-2.51-1.59-.59,0-.9-.11-.9-.51s.4-.4,1.2-.4c2.8,0,5,.1,5.4.1s2.71-.1,4.41-.1c.6,0,1,.1,1,.4s-.3.51-.8.51a6.12,6.12,0,0,0-1.8.29c-1.3.5-1.9,2.6-3,5.61C362.5,317.28,357,334,354.4,341.89c-.6,1.81-.8,2.51-1.5,2.51-.51,0-.8-.7-1.61-2.61l-11-26.42h-.1c-1,2.7-8,21.32-10.21,26.22-1,2.11-1.29,2.81-1.9,2.81s-.8-.61-1.2-2Z"
        transform="translate(-56.69 -56.69)" />
    <path class="cls-1"
        d="M399.63,321.37h.3c1.81-1.89,9.51-9.7,11-11.51s2.59-3.1,2.59-4c0-.59-.19-.9-.7-1s-.7-.2-.7-.59.31-.4.81-.4c1.2,0,3.9.09,5.4.09s4.51-.09,6.1-.09c.51,0,.91.09.91.4s-.3.5-.81.5a9.25,9.25,0,0,0-3,.59,15.1,15.1,0,0,0-5.7,3.91c-1.51,1.6-9.52,9.5-11.32,11.4,1.91,2.51,12.11,13.61,14.21,15.51,2.3,2.21,4.71,4.61,7.51,5.71a9.91,9.91,0,0,0,3.3.8c.3,0,.6.1.6.4s-.2.5-1.2.5h-4.6c-1.6,0-2.51,0-3.61-.1-2.9-.2-4.3-1.4-6.4-3.4-2.4-2.1-12.71-14.21-13.81-15.71l-.6-.8h-.3v4.8c0,4.8,0,9,.2,11.21.1,1.49.6,2.6,1.91,2.9a22.58,22.58,0,0,0,2.59.2c.4,0,.7.1.7.4s-.5.5-1,.5c-3,0-6.3-.1-7.6-.1s-4.51.1-6.61.1c-.7,0-1.09-.1-1.09-.5s.19-.4.89-.4a8.08,8.08,0,0,0,1.8-.2c1.11-.3,1.31-1.41,1.61-2.9.2-2.2.2-6.41.2-11.21v-9.31c0-8,0-9.4-.11-11.11s-.5-2.69-2.2-3a11.64,11.64,0,0,0-2.11-.19c-.59,0-.89-.11-.89-.5s.4-.4,1.2-.4c2.8,0,6.11.09,7.31.09s4.6-.09,6.4-.09c.7,0,1.1.09,1.1.4s-.3.5-.7.5a7.5,7.5,0,0,0-1.49.19c-1.41.2-1.81,1.1-2,3-.1,1.71-.1,3.1-.1,11.11Z"
        transform="translate(-56.69 -56.69)" />
    <path class="cls-1"
        d="M449.77,303.87a15.66,15.66,0,0,1,8.2,2.19,9.08,9.08,0,0,1,3.6,7.2c0,3.91-1.6,7.52-6.9,11.82,4.71,5.9,8.3,10.6,11.41,13.81,2.9,3.1,5.1,3.5,5.9,3.6a9.32,9.32,0,0,0,1.4.2c.5,0,.7.1.7.4s-.4.5-1,.5h-5c-3,0-4.31-.2-5.6-1-2.32-1.21-4.31-3.7-7.21-7.71-2.2-2.9-4.61-6.5-5.3-7.3,0-.11-.11-.11-.2-.2v-2.7a4.39,4.39,0,0,0,2.5-.8c1.6-1.2,3.1-3.61,3.1-7.91,0-5.8-2.91-8.41-5.6-9.3Zm-11.92,15.2c0-8,0-9.4-.1-11.1s-.49-2.71-2.3-3a9.39,9.39,0,0,0-2-.21c-.61,0-.91-.1-.91-.5s.41-.39,1.1-.39c2.81,0,6.1.09,7.31.09,1.7,0,5.71-.09,7.41-.09h1.4v2.8a12.06,12.06,0,0,0-2.4-.41,14.89,14.89,0,0,0-2.81.21.74.74,0,0,0-.5.79v16c0,.61.1.81.5.91a12.94,12.94,0,0,0,4,.5h1.2v2.7a1.7,1.7,0,0,0-.7-.1l-4.61-.11a.37.37,0,0,0-.4.41v.7a111.28,111.28,0,0,0,.3,11.31c.1,1.49.4,2.6,2,2.9.8.1,2,.2,2.6.2.4,0,.61.1.61.4s-.3.5-1,.5c-3.11,0-7-.1-7.81-.1-1,0-4.3.1-6.41.1-.7,0-1-.1-1-.5s.2-.4.81-.4a9.29,9.29,0,0,0,1.9-.2c1.1-.3,1.29-1.41,1.49-2.9a110.13,110.13,0,0,0,.3-11.21Z"
        transform="translate(-56.69 -56.69)" />
    <path class="cls-1"
        d="M493.3,304.57c.59-1.4.9-1.91,1.4-1.91s.79.51,1.29,1.7c1.31,2.9,9.71,24.32,13.12,32.33,2,4.8,3.5,5.5,4.6,5.8a19.93,19.93,0,0,0,2.19.2c.41,0,.71,0,.71.4s-.5.5-2.4.5-5.8,0-10-.1c-.9,0-1.6,0-1.6-.4s.3-.4.81-.5a.9.9,0,0,0,.5-1.2l-4.31-11.11c-.1-.29-.2-.4-.5-.4h-5.8v-2.61h4.79c.31,0,.31-.19.31-.39L493.7,314c-.11-.3-.11-.5-.31-.5h-.09Zm-5.91,25.31c-.3,0-.4.11-.5.4l-2.8,7.5a11.33,11.33,0,0,0-.81,3.21c0,1,.5,1.7,2.1,1.7h.81c.59,0,.8.1.8.4s-.3.5-.91.5c-1.69,0-4-.1-5.59-.1-.6,0-3.51.1-6.21.1-.7,0-1-.1-1-.5s.2-.4.6-.4,1.2-.1,1.7-.1c2.41-.4,3.41-2.11,4.4-4.81l13.21-33c.11-.11.11-.11.11-.2v8.9a.72.72,0,0,0-.21.5l-4.9,12.91c0,.2,0,.39.2.39h4.91v2.61Z"
        transform="translate(-56.69 -56.69)" />
    <path class="cls-1"
        d="M531.82,321.37h.3c1.8-1.89,9.41-9.7,11-11.51,1.4-1.79,2.6-3.1,2.6-4,0-.59-.2-.9-.7-1s-.7-.2-.7-.59.2-.4.81-.4c1.09,0,4,.09,5.4.09,1.69,0,4.59-.09,6.2-.09.5,0,.9.09.9.4s-.3.5-.8.5a10,10,0,0,0-3.11.59,15.86,15.86,0,0,0-5.6,3.91c-1.7,1.6-9.61,9.5-11.41,11.4,1.9,2.51,12.21,13.61,14.21,15.51,2.41,2.21,4.7,4.61,7.61,5.71a10.07,10.07,0,0,0,3.2.8c.4,0,.7.1.7.4s-.2.5-1.3.5h-4.5c-1.6,0-2.6,0-3.6-.1-2.91-.2-4.31-1.4-6.61-3.4s-12.61-14.21-13.71-15.71l-.6-.8h-.3v4.8c0,4.8,0,9,.2,11.21.1,1.49.61,2.6,1.9,2.9a22.84,22.84,0,0,0,2.51.2c.49,0,.69.1.69.4s-.4.5-1,.5c-2.91,0-6.21-.1-7.51-.1s-4.61.1-6.71.1c-.7,0-1-.1-1-.5s.21-.4.8-.4a9.31,9.31,0,0,0,1.91-.2c1.09-.3,1.3-1.41,1.5-2.9a110.13,110.13,0,0,0,.3-11.21v-9.31c0-8,0-9.4-.1-11.11s-.5-2.69-2.31-3a10.42,10.42,0,0,0-2-.19c-.59,0-.9-.11-.9-.5s.4-.4,1.1-.4c2.8,0,6.1.09,7.41.09s4.6-.09,6.4-.09c.7,0,1.11.09,1.11.4s-.31.5-.8.5a7.74,7.74,0,0,0-1.41.19c-1.5.2-1.9,1.1-2,3-.11,1.71-.11,3.1-.11,11.11Z"
        transform="translate(-56.69 -56.69)" />
    <path class="cls-1"
        d="M582.26,303.06h.31c13.1,0,21.2,7.7,21.2,19.72s-8.3,21.41-21.51,21.62v-2.81a13.54,13.54,0,0,0,2,.1c3.7,0,12.21-1.8,12.21-17,0-11.2-6.21-18.3-14.22-19Zm-21.42,20.62c0-8.91,5.91-20.42,21.42-20.62v2.6h-1.2c-6.11,0-13,3.31-13,16.41,0,10.21,5.31,18.52,14.21,19.52v2.81h-.2c-15.11,0-21.22-11.32-21.22-20.72"
        transform="translate(-56.69 -56.69)" />
    <path class="cls-1"
        d="M609.88,309c-.7-1.9-1.2-3.21-2-3.7a4.22,4.22,0,0,0-2.11-.5c-.49,0-.8,0-.8-.51,0-.3.41-.4,1.11-.4,2.8,0,5.7.1,6.1.1s2.81-.1,5.91-.1c.7,0,1.1.1,1.1.4,0,.51-.4.51-1,.51a3,3,0,0,0-1.29.19c-.51.2-.61.6-.61,1.2a47.19,47.19,0,0,0,1.2,4.81c.91,3.5,5.81,19.41,6.71,22.41h.2L634.59,306c.51-1.51.91-1.9,1.31-1.9.6,0,.8.79,1.5,2.39l11,26.53h.11c1-3.51,5.19-17.42,7-23.63a9.77,9.77,0,0,0,.51-3c0-.8-.42-1.59-2.51-1.59-.51,0-.91-.11-.91-.51s.4-.4,1.21-.4c2.8,0,5,.1,5.5.1s2.61-.1,4.41-.1c.5,0,.89.1.89.4s-.3.51-.7.51a6.36,6.36,0,0,0-1.9.29c-1.2.5-1.79,2.6-2.89,5.61-2.41,6.61-8,23.32-10.52,31.22-.59,1.81-.9,2.51-1.59,2.51-.51,0-.81-.7-1.61-2.61l-10.91-26.42h-.09c-1,2.7-8,21.32-10.31,26.22-1,2.11-1.21,2.81-1.9,2.81-.51,0-.71-.61-1.21-2Z"
        transform="translate(-56.69 -56.69)" />
    <path class="cls-1"
        d="M674.32,319.07c0-8,0-9.4-.1-11.1s-.7-2.71-1.8-3a10.94,10.94,0,0,0-1.9-.21c-.5,0-.9-.1-.9-.5s.5-.39,1.3-.39c2,0,5.3.09,6.81.09,1.3,0,4.4-.09,6.5-.09.6,0,1,.09,1,.39s-.3.5-.8.5a10.37,10.37,0,0,0-1.6.21c-1.4.19-1.8,1.09-1.9,3-.11,1.7-.11,3.1-.11,11.1v9.31c0,5.1,0,9.2.21,11.5.1,1.41.49,2.31,2.11,2.61a22.8,22.8,0,0,0,2.69.2c.5,0,.81.1.81.4s-.41.5-1,.5c-3.5,0-6.8-.1-8.2-.1-1.21,0-4.5.1-6.61.1-.7,0-1.1-.1-1.1-.5s.3-.4.91-.4a9.37,9.37,0,0,0,1.9-.2c1-.3,1.29-1.11,1.49-2.7a111.47,111.47,0,0,0,.3-11.41Z"
        transform="translate(-56.69 -56.69)" />
    <path class="cls-1"
        d="M698.64,319.07c0-8,0-9.4-.1-11.1s-.51-2.71-2.3-3a9.6,9.6,0,0,0-2-.21c-.59,0-.9-.1-.9-.5s.31-.39,1.11-.39h4.3c1.4.09,2.6.09,3.3.09h13.21a20.64,20.64,0,0,0,2.2-.3,2.92,2.92,0,0,1,.9-.2c.2,0,.31.2.31.41a22.08,22.08,0,0,0-.41,3.39c-.09.61-.2,2.91-.3,3.5-.1.31-.2.61-.5.61s-.5-.3-.5-.7a7.32,7.32,0,0,0-.3-1.9c-.4-1-.9-1.6-3.5-1.9-1-.11-6.5-.2-7.5-.2-.31,0-.4.09-.4.5v13.3c0,.31.09.61.4.61,1.09,0,7.2,0,8.4-.11a4.65,4.65,0,0,0,2.51-.79c.39-.5.59-.71.89-.71s.3.1.3.4-.2,1.21-.4,3.81c0,1.1-.2,3.2-.2,3.6s0,1-.5,1-.5-.2-.5-.5a6.82,6.82,0,0,0-.2-1.9c-.2-1.1-1-1.8-2.9-2-1-.2-6.2-.2-7.51-.2-.2,0-.29.2-.29.5v12.3c.09,3.61,1,4.41,6.3,4.41a14.36,14.36,0,0,0,5-.6c1.29-.61,2-1.7,2.3-3.91.09-.6.19-.79.59-.79s.41.4.41,1a36.66,36.66,0,0,1-.7,5.8c-.3,1.4-.81,1.4-2.81,1.4-3.9,0-6.81-.09-9.11-.2s-3.89-.1-5.49-.1h-3c-1.2,0-2.5.1-3.6.1-.7,0-1-.1-1-.5s.2-.4.79-.4a9.5,9.5,0,0,0,1.92-.2c1-.3,1.29-1.41,1.49-2.9a110.13,110.13,0,0,0,.3-11.21Z"
        transform="translate(-56.69 -56.69)" />
    <path class="cls-1"
        d="M164.87,108.13c0,8.71,9,15.81,17.81,15.81a15.8,15.8,0,0,0,14.71-10l1,.5a15,15,0,1,0,15-14.91,15.33,15.33,0,0,0-7.4,2,16.13,16.13,0,0,1,29.22-.61l-.51-8.4,18.42-19.21-21.72,75.55H83.91L62.1,73.31l18,19.21v8.4a16.13,16.13,0,0,1,29.22.61,15.37,15.37,0,0,0-7.41-2,15,15,0,1,0,15,14.91l1-.5a15.71,15.71,0,0,0,14.71,10c8.71,0,17.52-7.1,17.52-15.81,0-7-5.11-12.61-12.11-12.61a12.59,12.59,0,0,0-6.91,2.09,15,15,0,0,1,6.71-9.6c3.3-2.1,7-1.6,10.51-1.1l4,1.41-2.2-3.41-2.11-3,9.41-25.22L167,81.91l-2.21,3-2.09,3.41,4-1.41c3.51-.5,7.21-1,10.41,1.1a15.11,15.11,0,0,1,6.81,9.6A12.82,12.82,0,0,0,177,95.52c-7,0-12.1,5.6-12.1,12.61"
        transform="translate(-56.69 -56.69)" />
    <path class="cls-1"
        d="M228.41,369c19.31-17.52,30-40.73,30-65.64l.2-125.49v-1.7H232.82v1.7l-.21,125.49c0,17.5-7.6,33.92-21.51,46.43-14.21,12.8-33.22,19.81-53.54,19.81-41.23,0-74.85-29.52-75-65.85h96.76l-25.51-25.51H82.51V252.73h20.81l25.62-25.42H82.51V201.69h71.25L180,176.18H56.69V303.37c0,50.83,45.23,92.06,100.87,92.06,26.72,0,51.84-9.41,70.85-26.42"
        transform="translate(-56.69 -56.69)" />
    <path class="cls-1"
        d="M192,303.76h35.62S183.08,259.14,164,240.12c17.91-17.81,56.43-56.44,63.94-64H191.78l-53.63,53.64-10.21,10.31c21.32,21.21,42.73,42.33,64.05,63.64"
        transform="translate(-56.69 -56.69)" />
    <path class="cls-1"
        d="M126.24,331.19v-4.31c0-.8,0-1.2-.5-1.2a23.85,23.85,0,0,0-3.8,1.6c-.1,0-.31.1-.4.1a.45.45,0,0,1-.3-.4c0-.2.2-.3.3-.4s6.5-4.21,7.6-5.1a1.71,1.71,0,0,1,.9-.4c.31,0,.41.29.41.7,0,.2-.21,3.5-.21,8.5v6.1c0,3.11,0,5.91.11,7.41.1,1,.29,1.5,1.3,1.8a17.65,17.65,0,0,0,2.2.1c.1,0,.3.1.3.4s-.2.3-.5.3c-2.5,0-4.61-.1-5.51-.1s-3.5.1-5.71.1c-.29,0-.49-.1-.49-.3s.1-.4.2-.4a13.9,13.9,0,0,0,2.7-.19c1-.21,1.2-.71,1.3-1.71.1-1.5.2-4.3.2-7.41Z"
        transform="translate(-56.69 -56.69)" />
    <path class="cls-1"
        d="M154.36,330c0,9.2-8,15-12.11,16.91a1.25,1.25,0,0,1-.59.1.32.32,0,0,1-.31-.29.68.68,0,0,1,.4-.51,18.55,18.55,0,0,0,8.5-15.31c0-5.8-2.39-8.31-5-8.31-2.3,0-3.9,2.1-3.9,4.9,0,5,3.2,6.21,4.4,6.21a5.18,5.18,0,0,0,2.2-.39c.41-.21.51-.41.71-.41s.2.1.2.3a.8.8,0,0,1-.2.4,6,6,0,0,1-4.31,1.51,6.37,6.37,0,0,1-6.7-6.42c0-4.39,3.4-7.59,8.4-7.59,5.41,0,8.31,3.9,8.31,8.9"
        transform="translate(-56.69 -56.69)" />
    <path class="cls-1"
        d="M158.16,346.29a.53.53,0,0,1-.49-.49c0-.21.39-.51.7-.81,4.6-4.1,11.1-9.21,11.1-16.11,0-5.2-2.81-6.31-4.5-6.31a4.85,4.85,0,0,0-3.5,1.2,6,6,0,0,0-1.31,3.21c0,.29-.1.6-.5.6q-.14,0-.3-.6c0-.3-.2-3.1-.2-4,0-.3.1-.41.41-.71a13.71,13.71,0,0,1,6-1.19c5.8,0,8.2,3.1,8.2,7,0,6.4-7,11.9-11.31,15.31-.09.1-.09.2.11.2h2.19c.61,0,4.51,0,5.71-.2a3.84,3.84,0,0,0,3.71-2.91c.1-.39.19-.5.4-.5s.29.31.29.61a27.82,27.82,0,0,1-1,4.7c-.2.9-.79,1-2.8,1Z"
        transform="translate(-56.69 -56.69)" />
    <path class="cls-1"
        d="M180.18,346.29c-.6-.3-.6-.6-.6-1.3a29.46,29.46,0,0,1,.1-4.2c.1-.31.1-.6.4-.6s.2.19.2.6c0,3.5,2.2,4.4,4.5,4.4,2.6,0,5.51-1.7,5.51-6,0-5.31-5.81-7.41-8.41-7.8-.4-.11-.6-.2-.6-.7l.8-8.62c0-.39.3-.5.6-.5h8.1a9.11,9.11,0,0,0,1.81-.09,3.39,3.39,0,0,0,.7-.11c.2,0,.3.11.3.61a30.81,30.81,0,0,1-.41,4.2c-.09.2-.19.4-.4.4s-.29-.2-.29-.4c0-.9-.21-1.8-2.81-1.8h-6l-.5,4c4.9.8,10.91,3.51,10.91,9.2,0,4.41-3.21,9.21-10.81,9.21a9.59,9.59,0,0,1-3.1-.5"
        transform="translate(-56.69 -56.69)" />
</svg>